<mxfile host="app.diagrams.net" agent="Mozilla/5.0 (Windows NT 10.0; Win64; x64) AppleWebKit/537.36 (KHTML, like Gecko) Chrome/135.0.0.0 Safari/537.36" version="26.2.15" pages="3">
  <diagram name="Friends" id="FVSBI4qpgym267rr008H">
    <mxGraphModel dx="1002" dy="1132" grid="0" gridSize="10" guides="1" tooltips="1" connect="1" arrows="1" fold="1" page="0" pageScale="1" pageWidth="827" pageHeight="1169" math="0" shadow="0">
      <root>
        <mxCell id="0" />
        <mxCell id="1" parent="0" />
        <mxCell id="glBZ5Kq2gvWych0Q8KCm-4" value="" style="group" vertex="1" connectable="0" parent="1">
          <mxGeometry x="162" y="67" width="80" height="80" as="geometry" />
        </mxCell>
        <mxCell id="glBZ5Kq2gvWych0Q8KCm-5" value="&lt;font style=&quot;font-size: 16px;&quot;&gt;Елена&lt;/font&gt;" style="ellipse;whiteSpace=wrap;html=1;aspect=fixed;" vertex="1" parent="glBZ5Kq2gvWych0Q8KCm-4">
          <mxGeometry width="80" height="80" as="geometry" />
        </mxCell>
        <mxCell id="glBZ5Kq2gvWych0Q8KCm-6" value="4" style="ellipse;whiteSpace=wrap;html=1;aspect=fixed;" vertex="1" parent="glBZ5Kq2gvWych0Q8KCm-4">
          <mxGeometry x="29" y="7" width="22" height="22" as="geometry" />
        </mxCell>
        <mxCell id="glBZ5Kq2gvWych0Q8KCm-7" value="" style="group" vertex="1" connectable="0" parent="1">
          <mxGeometry x="59" y="145" width="80" height="80" as="geometry" />
        </mxCell>
        <mxCell id="glBZ5Kq2gvWych0Q8KCm-8" value="&lt;font style=&quot;font-size: 16px;&quot;&gt;Иван&lt;/font&gt;" style="ellipse;whiteSpace=wrap;html=1;aspect=fixed;" vertex="1" parent="glBZ5Kq2gvWych0Q8KCm-7">
          <mxGeometry width="80" height="80" as="geometry" />
        </mxCell>
        <mxCell id="glBZ5Kq2gvWych0Q8KCm-9" value="3" style="ellipse;whiteSpace=wrap;html=1;aspect=fixed;" vertex="1" parent="glBZ5Kq2gvWych0Q8KCm-7">
          <mxGeometry x="29" y="7" width="22" height="22" as="geometry" />
        </mxCell>
        <mxCell id="glBZ5Kq2gvWych0Q8KCm-10" value="" style="group" vertex="1" connectable="0" parent="1">
          <mxGeometry x="89" y="-89" width="80" height="80" as="geometry" />
        </mxCell>
        <mxCell id="glBZ5Kq2gvWych0Q8KCm-11" value="&lt;font style=&quot;font-size: 16px;&quot;&gt;Мария&lt;/font&gt;" style="ellipse;whiteSpace=wrap;html=1;aspect=fixed;" vertex="1" parent="glBZ5Kq2gvWych0Q8KCm-10">
          <mxGeometry width="80" height="80" as="geometry" />
        </mxCell>
        <mxCell id="glBZ5Kq2gvWych0Q8KCm-12" value="2" style="ellipse;whiteSpace=wrap;html=1;aspect=fixed;" vertex="1" parent="glBZ5Kq2gvWych0Q8KCm-10">
          <mxGeometry x="29" y="7" width="22" height="22" as="geometry" />
        </mxCell>
        <mxCell id="glBZ5Kq2gvWych0Q8KCm-13" value="" style="group" vertex="1" connectable="0" parent="1">
          <mxGeometry x="-82" y="118" width="80" height="80" as="geometry" />
        </mxCell>
        <mxCell id="glBZ5Kq2gvWych0Q8KCm-14" value="&lt;font style=&quot;font-size: 16px;&quot;&gt;Алексей&lt;/font&gt;" style="ellipse;whiteSpace=wrap;html=1;aspect=fixed;" vertex="1" parent="glBZ5Kq2gvWych0Q8KCm-13">
          <mxGeometry width="80" height="80" as="geometry" />
        </mxCell>
        <mxCell id="glBZ5Kq2gvWych0Q8KCm-15" value="1" style="ellipse;whiteSpace=wrap;html=1;aspect=fixed;" vertex="1" parent="glBZ5Kq2gvWych0Q8KCm-13">
          <mxGeometry x="29" y="7" width="22" height="22" as="geometry" />
        </mxCell>
        <mxCell id="glBZ5Kq2gvWych0Q8KCm-16" value="" style="group" vertex="1" connectable="0" parent="1">
          <mxGeometry x="306" y="118" width="80" height="80" as="geometry" />
        </mxCell>
        <mxCell id="glBZ5Kq2gvWych0Q8KCm-17" value="&lt;font style=&quot;font-size: 16px;&quot;&gt;Дмитрий&lt;/font&gt;" style="ellipse;whiteSpace=wrap;html=1;aspect=fixed;" vertex="1" parent="glBZ5Kq2gvWych0Q8KCm-16">
          <mxGeometry width="80" height="80" as="geometry" />
        </mxCell>
        <mxCell id="glBZ5Kq2gvWych0Q8KCm-18" value="5" style="ellipse;whiteSpace=wrap;html=1;aspect=fixed;" vertex="1" parent="glBZ5Kq2gvWych0Q8KCm-16">
          <mxGeometry x="29" y="7" width="22" height="22" as="geometry" />
        </mxCell>
        <mxCell id="glBZ5Kq2gvWych0Q8KCm-19" value="" style="group" vertex="1" connectable="0" parent="1">
          <mxGeometry x="55" y="38" width="80" height="80" as="geometry" />
        </mxCell>
        <mxCell id="glBZ5Kq2gvWych0Q8KCm-20" value="&lt;font style=&quot;font-size: 16px;&quot;&gt;Ольга&lt;/font&gt;" style="ellipse;whiteSpace=wrap;html=1;aspect=fixed;" vertex="1" parent="glBZ5Kq2gvWych0Q8KCm-19">
          <mxGeometry width="80" height="80" as="geometry" />
        </mxCell>
        <mxCell id="glBZ5Kq2gvWych0Q8KCm-21" value="6" style="ellipse;whiteSpace=wrap;html=1;aspect=fixed;" vertex="1" parent="glBZ5Kq2gvWych0Q8KCm-19">
          <mxGeometry x="29" y="7" width="22" height="22" as="geometry" />
        </mxCell>
        <mxCell id="glBZ5Kq2gvWych0Q8KCm-22" value="" style="group" vertex="1" connectable="0" parent="1">
          <mxGeometry x="261" y="6" width="80" height="80" as="geometry" />
        </mxCell>
        <mxCell id="glBZ5Kq2gvWych0Q8KCm-23" value="&lt;font style=&quot;font-size: 16px;&quot;&gt;Сергей&lt;/font&gt;" style="ellipse;whiteSpace=wrap;html=1;aspect=fixed;" vertex="1" parent="glBZ5Kq2gvWych0Q8KCm-22">
          <mxGeometry width="80" height="80" as="geometry" />
        </mxCell>
        <mxCell id="glBZ5Kq2gvWych0Q8KCm-24" value="7" style="ellipse;whiteSpace=wrap;html=1;aspect=fixed;" vertex="1" parent="glBZ5Kq2gvWych0Q8KCm-22">
          <mxGeometry x="29" y="7" width="22" height="22" as="geometry" />
        </mxCell>
        <mxCell id="glBZ5Kq2gvWych0Q8KCm-25" value="" style="group" vertex="1" connectable="0" parent="1">
          <mxGeometry x="59" y="307" width="80" height="80" as="geometry" />
        </mxCell>
        <mxCell id="glBZ5Kq2gvWych0Q8KCm-26" value="&lt;font style=&quot;font-size: 16px;&quot;&gt;Анна&lt;/font&gt;" style="ellipse;whiteSpace=wrap;html=1;aspect=fixed;" vertex="1" parent="glBZ5Kq2gvWych0Q8KCm-25">
          <mxGeometry width="80" height="80" as="geometry" />
        </mxCell>
        <mxCell id="glBZ5Kq2gvWych0Q8KCm-27" value="8" style="ellipse;whiteSpace=wrap;html=1;aspect=fixed;" vertex="1" parent="glBZ5Kq2gvWych0Q8KCm-25">
          <mxGeometry x="29" y="7" width="22" height="22" as="geometry" />
        </mxCell>
        <mxCell id="glBZ5Kq2gvWych0Q8KCm-28" value="" style="group" vertex="1" connectable="0" parent="1">
          <mxGeometry x="194" y="307" width="80" height="80" as="geometry" />
        </mxCell>
        <mxCell id="glBZ5Kq2gvWych0Q8KCm-29" value="&lt;font style=&quot;font-size: 16px;&quot;&gt;Павел&lt;/font&gt;" style="ellipse;whiteSpace=wrap;html=1;aspect=fixed;" vertex="1" parent="glBZ5Kq2gvWych0Q8KCm-28">
          <mxGeometry width="80" height="80" as="geometry" />
        </mxCell>
        <mxCell id="glBZ5Kq2gvWych0Q8KCm-30" value="9" style="ellipse;whiteSpace=wrap;html=1;aspect=fixed;" vertex="1" parent="glBZ5Kq2gvWych0Q8KCm-28">
          <mxGeometry x="29" y="7" width="22" height="22" as="geometry" />
        </mxCell>
        <mxCell id="glBZ5Kq2gvWych0Q8KCm-31" value="" style="group" vertex="1" connectable="0" parent="1">
          <mxGeometry x="183" y="198" width="80" height="80" as="geometry" />
        </mxCell>
        <mxCell id="glBZ5Kq2gvWych0Q8KCm-32" value="&lt;font style=&quot;font-size: 16px;&quot;&gt;Юлия&lt;/font&gt;" style="ellipse;whiteSpace=wrap;html=1;aspect=fixed;" vertex="1" parent="glBZ5Kq2gvWych0Q8KCm-31">
          <mxGeometry width="80" height="80" as="geometry" />
        </mxCell>
        <mxCell id="glBZ5Kq2gvWych0Q8KCm-33" value="10" style="ellipse;whiteSpace=wrap;html=1;aspect=fixed;" vertex="1" parent="glBZ5Kq2gvWych0Q8KCm-31">
          <mxGeometry x="29" y="7" width="22" height="22" as="geometry" />
        </mxCell>
        <mxCell id="xGVw3fg8VW-HX6Nw3ABW-1" value="" style="group" vertex="1" connectable="0" parent="1">
          <mxGeometry x="306" y="240" width="80" height="80" as="geometry" />
        </mxCell>
        <mxCell id="xGVw3fg8VW-HX6Nw3ABW-2" value="&lt;font style=&quot;font-size: 16px;&quot;&gt;Александр&lt;/font&gt;" style="ellipse;whiteSpace=wrap;html=1;aspect=fixed;" vertex="1" parent="xGVw3fg8VW-HX6Nw3ABW-1">
          <mxGeometry width="80" height="80" as="geometry" />
        </mxCell>
        <mxCell id="xGVw3fg8VW-HX6Nw3ABW-3" value="11" style="ellipse;whiteSpace=wrap;html=1;aspect=fixed;" vertex="1" parent="xGVw3fg8VW-HX6Nw3ABW-1">
          <mxGeometry x="29" y="7" width="22" height="22" as="geometry" />
        </mxCell>
        <mxCell id="xGVw3fg8VW-HX6Nw3ABW-4" value="" style="group" vertex="1" connectable="0" parent="1">
          <mxGeometry x="-86" y="250" width="80" height="80" as="geometry" />
        </mxCell>
        <mxCell id="xGVw3fg8VW-HX6Nw3ABW-5" value="&lt;font style=&quot;font-size: 16px;&quot;&gt;Татьяна&lt;/font&gt;" style="ellipse;whiteSpace=wrap;html=1;aspect=fixed;" vertex="1" parent="xGVw3fg8VW-HX6Nw3ABW-4">
          <mxGeometry width="80" height="80" as="geometry" />
        </mxCell>
        <mxCell id="xGVw3fg8VW-HX6Nw3ABW-6" value="12" style="ellipse;whiteSpace=wrap;html=1;aspect=fixed;" vertex="1" parent="xGVw3fg8VW-HX6Nw3ABW-4">
          <mxGeometry x="29" y="7" width="22" height="22" as="geometry" />
        </mxCell>
        <mxCell id="xGVw3fg8VW-HX6Nw3ABW-7" style="edgeStyle=none;curved=1;rounded=0;orthogonalLoop=1;jettySize=auto;html=1;exitX=1;exitY=0;exitDx=0;exitDy=0;fontSize=12;startSize=8;endSize=8;endArrow=none;startFill=0;" edge="1" parent="1" source="glBZ5Kq2gvWych0Q8KCm-14" target="glBZ5Kq2gvWych0Q8KCm-11">
          <mxGeometry relative="1" as="geometry" />
        </mxCell>
        <mxCell id="xGVw3fg8VW-HX6Nw3ABW-8" style="edgeStyle=none;curved=1;rounded=0;orthogonalLoop=1;jettySize=auto;html=1;exitX=1;exitY=0.5;exitDx=0;exitDy=0;fontSize=12;startSize=8;endSize=8;endArrow=none;startFill=0;" edge="1" parent="1" source="glBZ5Kq2gvWych0Q8KCm-14" target="glBZ5Kq2gvWych0Q8KCm-8">
          <mxGeometry relative="1" as="geometry" />
        </mxCell>
        <mxCell id="xGVw3fg8VW-HX6Nw3ABW-9" style="edgeStyle=none;curved=1;rounded=0;orthogonalLoop=1;jettySize=auto;html=1;exitX=1;exitY=1;exitDx=0;exitDy=0;entryX=0.5;entryY=0;entryDx=0;entryDy=0;fontSize=12;startSize=8;endSize=8;endArrow=none;startFill=0;" edge="1" parent="1" source="glBZ5Kq2gvWych0Q8KCm-11" target="glBZ5Kq2gvWych0Q8KCm-5">
          <mxGeometry relative="1" as="geometry" />
        </mxCell>
        <mxCell id="xGVw3fg8VW-HX6Nw3ABW-10" style="edgeStyle=none;curved=1;rounded=0;orthogonalLoop=1;jettySize=auto;html=1;exitX=1;exitY=0.5;exitDx=0;exitDy=0;entryX=0;entryY=0.5;entryDx=0;entryDy=0;fontSize=12;startSize=8;endSize=8;endArrow=none;startFill=0;" edge="1" parent="1" source="glBZ5Kq2gvWych0Q8KCm-8" target="glBZ5Kq2gvWych0Q8KCm-17">
          <mxGeometry relative="1" as="geometry" />
        </mxCell>
        <mxCell id="xGVw3fg8VW-HX6Nw3ABW-11" style="edgeStyle=none;curved=1;rounded=0;orthogonalLoop=1;jettySize=auto;html=1;exitX=0;exitY=0.5;exitDx=0;exitDy=0;fontSize=12;startSize=8;endSize=8;endArrow=none;startFill=0;" edge="1" parent="1" source="glBZ5Kq2gvWych0Q8KCm-5" target="glBZ5Kq2gvWych0Q8KCm-20">
          <mxGeometry relative="1" as="geometry" />
        </mxCell>
        <mxCell id="xGVw3fg8VW-HX6Nw3ABW-12" style="edgeStyle=none;curved=1;rounded=0;orthogonalLoop=1;jettySize=auto;html=1;exitX=0.255;exitY=0.047;exitDx=0;exitDy=0;fontSize=12;startSize=8;endSize=8;exitPerimeter=0;entryX=0.658;entryY=0.938;entryDx=0;entryDy=0;entryPerimeter=0;endArrow=none;startFill=0;" edge="1" parent="1" source="glBZ5Kq2gvWych0Q8KCm-17" target="glBZ5Kq2gvWych0Q8KCm-23">
          <mxGeometry relative="1" as="geometry">
            <mxPoint x="366" y="79" as="targetPoint" />
          </mxGeometry>
        </mxCell>
        <mxCell id="xGVw3fg8VW-HX6Nw3ABW-16" style="edgeStyle=none;curved=1;rounded=0;orthogonalLoop=1;jettySize=auto;html=1;exitX=1;exitY=0;exitDx=0;exitDy=0;fontSize=12;startSize=8;endSize=8;endArrow=none;startFill=0;" edge="1" parent="1" source="glBZ5Kq2gvWych0Q8KCm-32" target="glBZ5Kq2gvWych0Q8KCm-17">
          <mxGeometry relative="1" as="geometry" />
        </mxCell>
        <mxCell id="xGVw3fg8VW-HX6Nw3ABW-18" style="edgeStyle=none;curved=1;rounded=0;orthogonalLoop=1;jettySize=auto;html=1;exitX=1;exitY=1;exitDx=0;exitDy=0;entryX=0;entryY=0.5;entryDx=0;entryDy=0;fontSize=12;startSize=8;endSize=8;endArrow=none;startFill=0;" edge="1" parent="1" source="glBZ5Kq2gvWych0Q8KCm-32" target="xGVw3fg8VW-HX6Nw3ABW-2">
          <mxGeometry relative="1" as="geometry" />
        </mxCell>
        <mxCell id="xGVw3fg8VW-HX6Nw3ABW-19" style="edgeStyle=none;curved=1;rounded=0;orthogonalLoop=1;jettySize=auto;html=1;exitX=1;exitY=0.5;exitDx=0;exitDy=0;fontSize=12;startSize=8;endSize=8;endArrow=none;startFill=0;" edge="1" parent="1" source="glBZ5Kq2gvWych0Q8KCm-26" target="glBZ5Kq2gvWych0Q8KCm-29">
          <mxGeometry relative="1" as="geometry" />
        </mxCell>
        <mxCell id="xGVw3fg8VW-HX6Nw3ABW-20" style="edgeStyle=none;curved=1;rounded=0;orthogonalLoop=1;jettySize=auto;html=1;exitX=1;exitY=0;exitDx=0;exitDy=0;entryX=0;entryY=1;entryDx=0;entryDy=0;fontSize=12;startSize=8;endSize=8;endArrow=none;startFill=0;" edge="1" parent="1" source="xGVw3fg8VW-HX6Nw3ABW-5" target="glBZ5Kq2gvWych0Q8KCm-8">
          <mxGeometry relative="1" as="geometry" />
        </mxCell>
        <mxCell id="xGVw3fg8VW-HX6Nw3ABW-21" style="edgeStyle=none;curved=1;rounded=0;orthogonalLoop=1;jettySize=auto;html=1;exitX=1;exitY=1;exitDx=0;exitDy=0;entryX=0;entryY=0.5;entryDx=0;entryDy=0;fontSize=12;startSize=8;endSize=8;endArrow=none;startFill=0;" edge="1" parent="1" source="xGVw3fg8VW-HX6Nw3ABW-5" target="glBZ5Kq2gvWych0Q8KCm-26">
          <mxGeometry relative="1" as="geometry" />
        </mxCell>
      </root>
    </mxGraphModel>
  </diagram>
  <diagram id="pXHl_6zo0cM3VEUVBS3p" name="ReadBooks">
    <mxGraphModel dx="1188" dy="557" grid="0" gridSize="10" guides="1" tooltips="1" connect="1" arrows="1" fold="1" page="0" pageScale="1" pageWidth="827" pageHeight="1169" math="0" shadow="0">
      <root>
        <mxCell id="0" />
        <mxCell id="1" parent="0" />
        <mxCell id="12Ipc6b-EldQjJN4dITN-16" value="" style="group" vertex="1" connectable="0" parent="1">
          <mxGeometry x="338" y="993" width="80" height="80" as="geometry" />
        </mxCell>
        <mxCell id="12Ipc6b-EldQjJN4dITN-17" value="&lt;br&gt;&lt;br&gt;Атлант расправил плечи" style="whiteSpace=wrap;html=1;aspect=fixed;" vertex="1" parent="12Ipc6b-EldQjJN4dITN-16">
          <mxGeometry width="80" height="80" as="geometry" />
        </mxCell>
        <mxCell id="12Ipc6b-EldQjJN4dITN-18" value="10" style="whiteSpace=wrap;html=1;aspect=fixed;" vertex="1" parent="12Ipc6b-EldQjJN4dITN-16">
          <mxGeometry x="26" width="28" height="28" as="geometry" />
        </mxCell>
        <mxCell id="12Ipc6b-EldQjJN4dITN-19" value="" style="group" vertex="1" connectable="0" parent="1">
          <mxGeometry x="236" y="993" width="80" height="80" as="geometry" />
        </mxCell>
        <mxCell id="12Ipc6b-EldQjJN4dITN-20" value="Тень горы" style="whiteSpace=wrap;html=1;aspect=fixed;" vertex="1" parent="12Ipc6b-EldQjJN4dITN-19">
          <mxGeometry width="80" height="80" as="geometry" />
        </mxCell>
        <mxCell id="12Ipc6b-EldQjJN4dITN-21" value="9" style="whiteSpace=wrap;html=1;aspect=fixed;" vertex="1" parent="12Ipc6b-EldQjJN4dITN-19">
          <mxGeometry x="26" width="28" height="28" as="geometry" />
        </mxCell>
        <mxCell id="12Ipc6b-EldQjJN4dITN-22" value="" style="group" vertex="1" connectable="0" parent="1">
          <mxGeometry x="212.5" y="767" width="93" height="93" as="geometry" />
        </mxCell>
        <mxCell id="12Ipc6b-EldQjJN4dITN-23" value="&lt;br&gt;&lt;br&gt;Гарри Поттер и философский камень" style="whiteSpace=wrap;html=1;aspect=fixed;" vertex="1" parent="12Ipc6b-EldQjJN4dITN-22">
          <mxGeometry width="93" height="93" as="geometry" />
        </mxCell>
        <mxCell id="12Ipc6b-EldQjJN4dITN-24" value="7" style="whiteSpace=wrap;html=1;aspect=fixed;" vertex="1" parent="12Ipc6b-EldQjJN4dITN-22">
          <mxGeometry x="32.5" width="28" height="28" as="geometry" />
        </mxCell>
        <mxCell id="12Ipc6b-EldQjJN4dITN-25" value="" style="group" vertex="1" connectable="0" parent="1">
          <mxGeometry x="437" y="767" width="80" height="80" as="geometry" />
        </mxCell>
        <mxCell id="12Ipc6b-EldQjJN4dITN-26" value="&lt;br&gt;Маленький&lt;br&gt;принц" style="whiteSpace=wrap;html=1;aspect=fixed;" vertex="1" parent="12Ipc6b-EldQjJN4dITN-25">
          <mxGeometry width="80" height="80" as="geometry" />
        </mxCell>
        <mxCell id="12Ipc6b-EldQjJN4dITN-27" value="6" style="whiteSpace=wrap;html=1;aspect=fixed;" vertex="1" parent="12Ipc6b-EldQjJN4dITN-25">
          <mxGeometry x="26" width="28" height="28" as="geometry" />
        </mxCell>
        <mxCell id="12Ipc6b-EldQjJN4dITN-28" value="" style="group" vertex="1" connectable="0" parent="1">
          <mxGeometry x="110" y="993" width="80" height="80" as="geometry" />
        </mxCell>
        <mxCell id="12Ipc6b-EldQjJN4dITN-29" value="&lt;br&gt;Три товарища" style="whiteSpace=wrap;html=1;aspect=fixed;" vertex="1" parent="12Ipc6b-EldQjJN4dITN-28">
          <mxGeometry width="80" height="80" as="geometry" />
        </mxCell>
        <mxCell id="12Ipc6b-EldQjJN4dITN-30" value="5" style="whiteSpace=wrap;html=1;aspect=fixed;" vertex="1" parent="12Ipc6b-EldQjJN4dITN-28">
          <mxGeometry x="26" width="28" height="28" as="geometry" />
        </mxCell>
        <mxCell id="12Ipc6b-EldQjJN4dITN-31" value="" style="group" vertex="1" connectable="0" parent="1">
          <mxGeometry x="328" y="767" width="80" height="80" as="geometry" />
        </mxCell>
        <mxCell id="12Ipc6b-EldQjJN4dITN-32" value="1984" style="whiteSpace=wrap;html=1;aspect=fixed;" vertex="1" parent="12Ipc6b-EldQjJN4dITN-31">
          <mxGeometry width="80" height="80" as="geometry" />
        </mxCell>
        <mxCell id="12Ipc6b-EldQjJN4dITN-33" value="4" style="whiteSpace=wrap;html=1;aspect=fixed;" vertex="1" parent="12Ipc6b-EldQjJN4dITN-31">
          <mxGeometry x="26" width="28" height="28" as="geometry" />
        </mxCell>
        <mxCell id="12Ipc6b-EldQjJN4dITN-34" value="" style="group" vertex="1" connectable="0" parent="1">
          <mxGeometry x="4" y="993" width="80" height="80" as="geometry" />
        </mxCell>
        <mxCell id="12Ipc6b-EldQjJN4dITN-35" value="Война и Мир" style="whiteSpace=wrap;html=1;aspect=fixed;" vertex="1" parent="12Ipc6b-EldQjJN4dITN-34">
          <mxGeometry width="80" height="80" as="geometry" />
        </mxCell>
        <mxCell id="12Ipc6b-EldQjJN4dITN-36" value="3" style="whiteSpace=wrap;html=1;aspect=fixed;" vertex="1" parent="12Ipc6b-EldQjJN4dITN-34">
          <mxGeometry x="26" width="28" height="28" as="geometry" />
        </mxCell>
        <mxCell id="12Ipc6b-EldQjJN4dITN-37" value="" style="group" vertex="1" connectable="0" parent="1">
          <mxGeometry x="110" y="767" width="80" height="80" as="geometry" />
        </mxCell>
        <mxCell id="12Ipc6b-EldQjJN4dITN-38" value="&lt;br&gt;&lt;br&gt;Преступление&lt;br&gt;и&lt;br&gt;наказание" style="whiteSpace=wrap;html=1;aspect=fixed;" vertex="1" parent="12Ipc6b-EldQjJN4dITN-37">
          <mxGeometry width="80" height="80" as="geometry" />
        </mxCell>
        <mxCell id="12Ipc6b-EldQjJN4dITN-39" value="2" style="whiteSpace=wrap;html=1;aspect=fixed;" vertex="1" parent="12Ipc6b-EldQjJN4dITN-37">
          <mxGeometry x="26" width="28" height="28" as="geometry" />
        </mxCell>
        <mxCell id="12Ipc6b-EldQjJN4dITN-40" value="" style="group" vertex="1" connectable="0" parent="1">
          <mxGeometry x="2" y="767" width="80" height="80" as="geometry" />
        </mxCell>
        <mxCell id="12Ipc6b-EldQjJN4dITN-41" value="&lt;br&gt;Мастер и маргарита" style="whiteSpace=wrap;html=1;aspect=fixed;" vertex="1" parent="12Ipc6b-EldQjJN4dITN-40">
          <mxGeometry width="80" height="80" as="geometry" />
        </mxCell>
        <mxCell id="12Ipc6b-EldQjJN4dITN-42" value="1" style="whiteSpace=wrap;html=1;aspect=fixed;" vertex="1" parent="12Ipc6b-EldQjJN4dITN-40">
          <mxGeometry x="26" width="28" height="28" as="geometry" />
        </mxCell>
        <mxCell id="12Ipc6b-EldQjJN4dITN-43" value="" style="group" vertex="1" connectable="0" parent="1">
          <mxGeometry x="445" y="993" width="80" height="80" as="geometry" />
        </mxCell>
        <mxCell id="12Ipc6b-EldQjJN4dITN-44" value="&lt;br&gt;Убить пересмешника" style="whiteSpace=wrap;html=1;aspect=fixed;" vertex="1" parent="12Ipc6b-EldQjJN4dITN-43">
          <mxGeometry width="80" height="80" as="geometry" />
        </mxCell>
        <mxCell id="12Ipc6b-EldQjJN4dITN-45" value="8" style="whiteSpace=wrap;html=1;aspect=fixed;" vertex="1" parent="12Ipc6b-EldQjJN4dITN-43">
          <mxGeometry x="26" width="28" height="28" as="geometry" />
        </mxCell>
        <mxCell id="IO88Oe0ILUnUM-acAW6m-1" value="" style="group" vertex="1" connectable="0" parent="1">
          <mxGeometry x="82" y="883" width="80" height="80" as="geometry" />
        </mxCell>
        <mxCell id="IO88Oe0ILUnUM-acAW6m-2" value="&lt;font style=&quot;font-size: 16px;&quot;&gt;Елена&lt;/font&gt;" style="ellipse;whiteSpace=wrap;html=1;aspect=fixed;" vertex="1" parent="IO88Oe0ILUnUM-acAW6m-1">
          <mxGeometry width="80" height="80" as="geometry" />
        </mxCell>
        <mxCell id="IO88Oe0ILUnUM-acAW6m-3" value="4" style="ellipse;whiteSpace=wrap;html=1;aspect=fixed;" vertex="1" parent="IO88Oe0ILUnUM-acAW6m-1">
          <mxGeometry x="29" y="7" width="22" height="22" as="geometry" />
        </mxCell>
        <mxCell id="IO88Oe0ILUnUM-acAW6m-4" value="" style="group" vertex="1" connectable="0" parent="1">
          <mxGeometry x="60" y="1133" width="80" height="80" as="geometry" />
        </mxCell>
        <mxCell id="IO88Oe0ILUnUM-acAW6m-5" value="&lt;font style=&quot;font-size: 16px;&quot;&gt;Иван&lt;/font&gt;" style="ellipse;whiteSpace=wrap;html=1;aspect=fixed;" vertex="1" parent="IO88Oe0ILUnUM-acAW6m-4">
          <mxGeometry width="80" height="80" as="geometry" />
        </mxCell>
        <mxCell id="IO88Oe0ILUnUM-acAW6m-6" value="3" style="ellipse;whiteSpace=wrap;html=1;aspect=fixed;" vertex="1" parent="IO88Oe0ILUnUM-acAW6m-4">
          <mxGeometry x="29" y="7" width="22" height="22" as="geometry" />
        </mxCell>
        <mxCell id="IO88Oe0ILUnUM-acAW6m-7" value="" style="group" vertex="1" connectable="0" parent="1">
          <mxGeometry x="382" y="630" width="80" height="80" as="geometry" />
        </mxCell>
        <mxCell id="IO88Oe0ILUnUM-acAW6m-8" value="&lt;font style=&quot;font-size: 16px;&quot;&gt;Мария&lt;/font&gt;" style="ellipse;whiteSpace=wrap;html=1;aspect=fixed;" vertex="1" parent="IO88Oe0ILUnUM-acAW6m-7">
          <mxGeometry width="80" height="80" as="geometry" />
        </mxCell>
        <mxCell id="IO88Oe0ILUnUM-acAW6m-9" value="2" style="ellipse;whiteSpace=wrap;html=1;aspect=fixed;" vertex="1" parent="IO88Oe0ILUnUM-acAW6m-7">
          <mxGeometry x="29" y="7" width="22" height="22" as="geometry" />
        </mxCell>
        <mxCell id="IO88Oe0ILUnUM-acAW6m-10" value="" style="group" vertex="1" connectable="0" parent="1">
          <mxGeometry x="110" y="630" width="80" height="80" as="geometry" />
        </mxCell>
        <mxCell id="IO88Oe0ILUnUM-acAW6m-11" value="&lt;font style=&quot;font-size: 16px;&quot;&gt;Алексей&lt;/font&gt;" style="ellipse;whiteSpace=wrap;html=1;aspect=fixed;" vertex="1" parent="IO88Oe0ILUnUM-acAW6m-10">
          <mxGeometry width="80" height="80" as="geometry" />
        </mxCell>
        <mxCell id="IO88Oe0ILUnUM-acAW6m-12" value="1" style="ellipse;whiteSpace=wrap;html=1;aspect=fixed;" vertex="1" parent="IO88Oe0ILUnUM-acAW6m-10">
          <mxGeometry x="29" y="7" width="22" height="22" as="geometry" />
        </mxCell>
        <mxCell id="IO88Oe0ILUnUM-acAW6m-13" value="" style="group" vertex="1" connectable="0" parent="1">
          <mxGeometry x="286" y="1137" width="80" height="80" as="geometry" />
        </mxCell>
        <mxCell id="IO88Oe0ILUnUM-acAW6m-14" value="&lt;font style=&quot;font-size: 16px;&quot;&gt;Дмитрий&lt;/font&gt;" style="ellipse;whiteSpace=wrap;html=1;aspect=fixed;" vertex="1" parent="IO88Oe0ILUnUM-acAW6m-13">
          <mxGeometry width="80" height="80" as="geometry" />
        </mxCell>
        <mxCell id="IO88Oe0ILUnUM-acAW6m-15" value="5" style="ellipse;whiteSpace=wrap;html=1;aspect=fixed;" vertex="1" parent="IO88Oe0ILUnUM-acAW6m-13">
          <mxGeometry x="29" y="7" width="22" height="22" as="geometry" />
        </mxCell>
        <mxCell id="IO88Oe0ILUnUM-acAW6m-16" value="" style="group" vertex="1" connectable="0" parent="1">
          <mxGeometry x="-28" y="883" width="80" height="80" as="geometry" />
        </mxCell>
        <mxCell id="IO88Oe0ILUnUM-acAW6m-17" value="&lt;font style=&quot;font-size: 16px;&quot;&gt;Ольга&lt;/font&gt;" style="ellipse;whiteSpace=wrap;html=1;aspect=fixed;" vertex="1" parent="IO88Oe0ILUnUM-acAW6m-16">
          <mxGeometry width="80" height="80" as="geometry" />
        </mxCell>
        <mxCell id="IO88Oe0ILUnUM-acAW6m-18" value="6" style="ellipse;whiteSpace=wrap;html=1;aspect=fixed;" vertex="1" parent="IO88Oe0ILUnUM-acAW6m-16">
          <mxGeometry x="29" y="7" width="22" height="22" as="geometry" />
        </mxCell>
        <mxCell id="IO88Oe0ILUnUM-acAW6m-53" value="" style="group" vertex="1" connectable="0" parent="1">
          <mxGeometry x="353" y="501" width="80" height="80" as="geometry" />
        </mxCell>
        <mxCell id="IO88Oe0ILUnUM-acAW6m-54" value="&lt;br&gt;&lt;br&gt;Над пропастью во ржи" style="whiteSpace=wrap;html=1;aspect=fixed;" vertex="1" parent="IO88Oe0ILUnUM-acAW6m-53">
          <mxGeometry width="80" height="80" as="geometry" />
        </mxCell>
        <mxCell id="IO88Oe0ILUnUM-acAW6m-55" value="14" style="whiteSpace=wrap;html=1;aspect=fixed;" vertex="1" parent="IO88Oe0ILUnUM-acAW6m-53">
          <mxGeometry x="26" width="28" height="28" as="geometry" />
        </mxCell>
        <mxCell id="IO88Oe0ILUnUM-acAW6m-56" value="" style="group" vertex="1" connectable="0" parent="1">
          <mxGeometry x="231" y="497" width="80" height="80" as="geometry" />
        </mxCell>
        <mxCell id="IO88Oe0ILUnUM-acAW6m-57" value="&lt;br&gt;Портрет Дориана Грея" style="whiteSpace=wrap;html=1;aspect=fixed;" vertex="1" parent="IO88Oe0ILUnUM-acAW6m-56">
          <mxGeometry width="80" height="80" as="geometry" />
        </mxCell>
        <mxCell id="IO88Oe0ILUnUM-acAW6m-58" value="13" style="whiteSpace=wrap;html=1;aspect=fixed;" vertex="1" parent="IO88Oe0ILUnUM-acAW6m-56">
          <mxGeometry x="26" width="28" height="28" as="geometry" />
        </mxCell>
        <mxCell id="IO88Oe0ILUnUM-acAW6m-59" value="" style="group" vertex="1" connectable="0" parent="1">
          <mxGeometry x="107" y="501" width="80" height="80" as="geometry" />
        </mxCell>
        <mxCell id="IO88Oe0ILUnUM-acAW6m-60" value="&lt;br&gt;Цветы для Элджернона" style="whiteSpace=wrap;html=1;aspect=fixed;" vertex="1" parent="IO88Oe0ILUnUM-acAW6m-59">
          <mxGeometry width="80" height="80" as="geometry" />
        </mxCell>
        <mxCell id="IO88Oe0ILUnUM-acAW6m-61" value="12" style="whiteSpace=wrap;html=1;aspect=fixed;" vertex="1" parent="IO88Oe0ILUnUM-acAW6m-59">
          <mxGeometry x="26" width="28" height="28" as="geometry" />
        </mxCell>
        <mxCell id="IO88Oe0ILUnUM-acAW6m-62" value="" style="group" vertex="1" connectable="0" parent="1">
          <mxGeometry x="-8" y="497" width="80" height="80" as="geometry" />
        </mxCell>
        <mxCell id="IO88Oe0ILUnUM-acAW6m-63" value="Шантарам" style="whiteSpace=wrap;html=1;aspect=fixed;" vertex="1" parent="IO88Oe0ILUnUM-acAW6m-62">
          <mxGeometry width="80" height="80" as="geometry" />
        </mxCell>
        <mxCell id="IO88Oe0ILUnUM-acAW6m-64" value="11" style="whiteSpace=wrap;html=1;aspect=fixed;" vertex="1" parent="IO88Oe0ILUnUM-acAW6m-62">
          <mxGeometry x="26" width="28" height="28" as="geometry" />
        </mxCell>
        <mxCell id="gVANppdWs5FTGW5ifeAb-1" style="edgeStyle=none;curved=1;rounded=0;orthogonalLoop=1;jettySize=auto;html=1;exitX=0;exitY=1;exitDx=0;exitDy=0;entryX=0.5;entryY=0;entryDx=0;entryDy=0;fontSize=12;startSize=8;endSize=8;" edge="1" parent="1" source="IO88Oe0ILUnUM-acAW6m-11" target="12Ipc6b-EldQjJN4dITN-42">
          <mxGeometry relative="1" as="geometry" />
        </mxCell>
        <mxCell id="gVANppdWs5FTGW5ifeAb-2" style="edgeStyle=none;curved=1;rounded=0;orthogonalLoop=1;jettySize=auto;html=1;exitX=0.5;exitY=1;exitDx=0;exitDy=0;entryX=0.5;entryY=0;entryDx=0;entryDy=0;fontSize=12;startSize=8;endSize=8;" edge="1" parent="1" source="IO88Oe0ILUnUM-acAW6m-11" target="12Ipc6b-EldQjJN4dITN-39">
          <mxGeometry relative="1" as="geometry" />
        </mxCell>
        <mxCell id="gVANppdWs5FTGW5ifeAb-3" style="edgeStyle=none;curved=1;rounded=0;orthogonalLoop=1;jettySize=auto;html=1;exitX=1;exitY=1;exitDx=0;exitDy=0;entryX=0.5;entryY=0;entryDx=0;entryDy=0;fontSize=12;startSize=8;endSize=8;" edge="1" parent="1" source="IO88Oe0ILUnUM-acAW6m-11" target="12Ipc6b-EldQjJN4dITN-24">
          <mxGeometry relative="1" as="geometry" />
        </mxCell>
        <mxCell id="gVANppdWs5FTGW5ifeAb-4" style="edgeStyle=none;curved=1;rounded=0;orthogonalLoop=1;jettySize=auto;html=1;exitX=0;exitY=1;exitDx=0;exitDy=0;fontSize=12;startSize=8;endSize=8;" edge="1" parent="1" source="IO88Oe0ILUnUM-acAW6m-8" target="12Ipc6b-EldQjJN4dITN-33">
          <mxGeometry relative="1" as="geometry" />
        </mxCell>
        <mxCell id="gVANppdWs5FTGW5ifeAb-5" style="edgeStyle=none;curved=1;rounded=0;orthogonalLoop=1;jettySize=auto;html=1;exitX=1;exitY=1;exitDx=0;exitDy=0;fontSize=12;startSize=8;endSize=8;" edge="1" parent="1" source="IO88Oe0ILUnUM-acAW6m-8" target="12Ipc6b-EldQjJN4dITN-27">
          <mxGeometry relative="1" as="geometry" />
        </mxCell>
        <mxCell id="gVANppdWs5FTGW5ifeAb-6" style="edgeStyle=none;curved=1;rounded=0;orthogonalLoop=1;jettySize=auto;html=1;exitX=0;exitY=0;exitDx=0;exitDy=0;fontSize=12;startSize=8;endSize=8;" edge="1" parent="1" source="IO88Oe0ILUnUM-acAW6m-5" target="12Ipc6b-EldQjJN4dITN-35">
          <mxGeometry relative="1" as="geometry" />
        </mxCell>
        <mxCell id="gVANppdWs5FTGW5ifeAb-7" style="edgeStyle=none;curved=1;rounded=0;orthogonalLoop=1;jettySize=auto;html=1;exitX=1;exitY=0;exitDx=0;exitDy=0;fontSize=12;startSize=8;endSize=8;" edge="1" parent="1" source="IO88Oe0ILUnUM-acAW6m-5" target="12Ipc6b-EldQjJN4dITN-29">
          <mxGeometry relative="1" as="geometry" />
        </mxCell>
        <mxCell id="gVANppdWs5FTGW5ifeAb-8" style="edgeStyle=none;curved=1;rounded=0;orthogonalLoop=1;jettySize=auto;html=1;exitX=0;exitY=0;exitDx=0;exitDy=0;entryX=0.5;entryY=1;entryDx=0;entryDy=0;fontSize=12;startSize=8;endSize=8;" edge="1" parent="1" source="IO88Oe0ILUnUM-acAW6m-2" target="12Ipc6b-EldQjJN4dITN-41">
          <mxGeometry relative="1" as="geometry" />
        </mxCell>
        <mxCell id="gVANppdWs5FTGW5ifeAb-9" style="edgeStyle=none;curved=1;rounded=0;orthogonalLoop=1;jettySize=auto;html=1;exitX=0.629;exitY=0.044;exitDx=0;exitDy=0;entryX=0.5;entryY=1;entryDx=0;entryDy=0;fontSize=12;startSize=8;endSize=8;exitPerimeter=0;" edge="1" parent="1" source="IO88Oe0ILUnUM-acAW6m-2" target="12Ipc6b-EldQjJN4dITN-38">
          <mxGeometry relative="1" as="geometry" />
        </mxCell>
        <mxCell id="gVANppdWs5FTGW5ifeAb-10" style="edgeStyle=none;curved=1;rounded=0;orthogonalLoop=1;jettySize=auto;html=1;exitX=0;exitY=0;exitDx=0;exitDy=0;entryX=0.5;entryY=1;entryDx=0;entryDy=0;fontSize=12;startSize=8;endSize=8;" edge="1" parent="1" source="IO88Oe0ILUnUM-acAW6m-14" target="12Ipc6b-EldQjJN4dITN-20">
          <mxGeometry relative="1" as="geometry" />
        </mxCell>
        <mxCell id="gVANppdWs5FTGW5ifeAb-11" style="edgeStyle=none;curved=1;rounded=0;orthogonalLoop=1;jettySize=auto;html=1;exitX=1;exitY=0;exitDx=0;exitDy=0;entryX=0.5;entryY=1;entryDx=0;entryDy=0;fontSize=12;startSize=8;endSize=8;" edge="1" parent="1" source="IO88Oe0ILUnUM-acAW6m-14" target="12Ipc6b-EldQjJN4dITN-17">
          <mxGeometry relative="1" as="geometry" />
        </mxCell>
        <mxCell id="gVANppdWs5FTGW5ifeAb-12" style="edgeStyle=none;curved=1;rounded=0;orthogonalLoop=1;jettySize=auto;html=1;exitX=0.5;exitY=0;exitDx=0;exitDy=0;entryX=0.25;entryY=1;entryDx=0;entryDy=0;fontSize=12;startSize=8;endSize=8;" edge="1" parent="1" source="IO88Oe0ILUnUM-acAW6m-17" target="12Ipc6b-EldQjJN4dITN-41">
          <mxGeometry relative="1" as="geometry" />
        </mxCell>
        <mxCell id="X-I9LTgNYsfjYJyiW_jy-1" value="" style="group" vertex="1" connectable="0" parent="1">
          <mxGeometry x="463" y="502" width="80" height="80" as="geometry" />
        </mxCell>
        <mxCell id="X-I9LTgNYsfjYJyiW_jy-2" value="Алхимик" style="whiteSpace=wrap;html=1;aspect=fixed;" vertex="1" parent="X-I9LTgNYsfjYJyiW_jy-1">
          <mxGeometry width="80" height="80" as="geometry" />
        </mxCell>
        <mxCell id="X-I9LTgNYsfjYJyiW_jy-3" value="15" style="whiteSpace=wrap;html=1;aspect=fixed;" vertex="1" parent="X-I9LTgNYsfjYJyiW_jy-1">
          <mxGeometry x="26" width="28" height="28" as="geometry" />
        </mxCell>
      </root>
    </mxGraphModel>
  </diagram>
  <diagram id="XTbxyLfE2Z4ntQNUq_gh" name="BookGenres">
    <mxGraphModel dx="912" dy="222" grid="0" gridSize="10" guides="1" tooltips="1" connect="1" arrows="1" fold="1" page="0" pageScale="1" pageWidth="827" pageHeight="1169" math="0" shadow="0">
      <root>
        <mxCell id="0" />
        <mxCell id="1" parent="0" />
        <mxCell id="jbRZyaFzqwwdzUMb1XsB-19" value="" style="group" vertex="1" connectable="0" parent="1">
          <mxGeometry x="298" y="921" width="120" height="80" as="geometry" />
        </mxCell>
        <mxCell id="jbRZyaFzqwwdzUMb1XsB-20" value="&lt;br&gt;Детская литература" style="shape=hexagon;perimeter=hexagonPerimeter2;whiteSpace=wrap;html=1;fixedSize=1;" vertex="1" parent="jbRZyaFzqwwdzUMb1XsB-19">
          <mxGeometry width="120" height="80" as="geometry" />
        </mxCell>
        <mxCell id="jbRZyaFzqwwdzUMb1XsB-21" value="10" style="ellipse;whiteSpace=wrap;html=1;aspect=fixed;" vertex="1" parent="jbRZyaFzqwwdzUMb1XsB-19">
          <mxGeometry x="43" width="34" height="34" as="geometry" />
        </mxCell>
        <mxCell id="jbRZyaFzqwwdzUMb1XsB-22" value="" style="group" vertex="1" connectable="0" parent="1">
          <mxGeometry x="297" y="812" width="120" height="80" as="geometry" />
        </mxCell>
        <mxCell id="jbRZyaFzqwwdzUMb1XsB-23" value="&lt;br&gt;Биография" style="shape=hexagon;perimeter=hexagonPerimeter2;whiteSpace=wrap;html=1;fixedSize=1;" vertex="1" parent="jbRZyaFzqwwdzUMb1XsB-22">
          <mxGeometry width="120" height="80" as="geometry" />
        </mxCell>
        <mxCell id="jbRZyaFzqwwdzUMb1XsB-24" value="9" style="ellipse;whiteSpace=wrap;html=1;aspect=fixed;" vertex="1" parent="jbRZyaFzqwwdzUMb1XsB-22">
          <mxGeometry x="43" width="34" height="34" as="geometry" />
        </mxCell>
        <mxCell id="jbRZyaFzqwwdzUMb1XsB-25" value="" style="group" vertex="1" connectable="0" parent="1">
          <mxGeometry x="298" y="704" width="120" height="80" as="geometry" />
        </mxCell>
        <mxCell id="jbRZyaFzqwwdzUMb1XsB-26" value="&lt;br&gt;Психология" style="shape=hexagon;perimeter=hexagonPerimeter2;whiteSpace=wrap;html=1;fixedSize=1;" vertex="1" parent="jbRZyaFzqwwdzUMb1XsB-25">
          <mxGeometry width="120" height="80" as="geometry" />
        </mxCell>
        <mxCell id="jbRZyaFzqwwdzUMb1XsB-27" value="8" style="ellipse;whiteSpace=wrap;html=1;aspect=fixed;" vertex="1" parent="jbRZyaFzqwwdzUMb1XsB-25">
          <mxGeometry x="43" width="34" height="34" as="geometry" />
        </mxCell>
        <mxCell id="jbRZyaFzqwwdzUMb1XsB-28" value="" style="group" vertex="1" connectable="0" parent="1">
          <mxGeometry x="298" y="593" width="120" height="80" as="geometry" />
        </mxCell>
        <mxCell id="jbRZyaFzqwwdzUMb1XsB-29" value="&lt;br&gt;Приключения" style="shape=hexagon;perimeter=hexagonPerimeter2;whiteSpace=wrap;html=1;fixedSize=1;" vertex="1" parent="jbRZyaFzqwwdzUMb1XsB-28">
          <mxGeometry width="120" height="80" as="geometry" />
        </mxCell>
        <mxCell id="jbRZyaFzqwwdzUMb1XsB-30" value="7" style="ellipse;whiteSpace=wrap;html=1;aspect=fixed;" vertex="1" parent="jbRZyaFzqwwdzUMb1XsB-28">
          <mxGeometry x="43" width="34" height="34" as="geometry" />
        </mxCell>
        <mxCell id="jbRZyaFzqwwdzUMb1XsB-31" value="" style="group" vertex="1" connectable="0" parent="1">
          <mxGeometry x="298" y="477" width="120" height="80" as="geometry" />
        </mxCell>
        <mxCell id="jbRZyaFzqwwdzUMb1XsB-32" value="Антиутопия" style="shape=hexagon;perimeter=hexagonPerimeter2;whiteSpace=wrap;html=1;fixedSize=1;" vertex="1" parent="jbRZyaFzqwwdzUMb1XsB-31">
          <mxGeometry width="120" height="80" as="geometry" />
        </mxCell>
        <mxCell id="jbRZyaFzqwwdzUMb1XsB-33" value="6" style="ellipse;whiteSpace=wrap;html=1;aspect=fixed;" vertex="1" parent="jbRZyaFzqwwdzUMb1XsB-31">
          <mxGeometry x="43" width="34" height="34" as="geometry" />
        </mxCell>
        <mxCell id="jbRZyaFzqwwdzUMb1XsB-34" value="" style="group" vertex="1" connectable="0" parent="1">
          <mxGeometry x="-182" y="921" width="120" height="80" as="geometry" />
        </mxCell>
        <mxCell id="jbRZyaFzqwwdzUMb1XsB-35" value="&lt;br&gt;Философия" style="shape=hexagon;perimeter=hexagonPerimeter2;whiteSpace=wrap;html=1;fixedSize=1;" vertex="1" parent="jbRZyaFzqwwdzUMb1XsB-34">
          <mxGeometry width="120" height="80" as="geometry" />
        </mxCell>
        <mxCell id="jbRZyaFzqwwdzUMb1XsB-36" value="5" style="ellipse;whiteSpace=wrap;html=1;aspect=fixed;" vertex="1" parent="jbRZyaFzqwwdzUMb1XsB-34">
          <mxGeometry x="43" width="34" height="34" as="geometry" />
        </mxCell>
        <mxCell id="jbRZyaFzqwwdzUMb1XsB-37" value="" style="group" vertex="1" connectable="0" parent="1">
          <mxGeometry x="-183" y="812" width="120" height="80" as="geometry" />
        </mxCell>
        <mxCell id="jbRZyaFzqwwdzUMb1XsB-38" value="&lt;br&gt;Драма" style="shape=hexagon;perimeter=hexagonPerimeter2;whiteSpace=wrap;html=1;fixedSize=1;" vertex="1" parent="jbRZyaFzqwwdzUMb1XsB-37">
          <mxGeometry width="120" height="80" as="geometry" />
        </mxCell>
        <mxCell id="jbRZyaFzqwwdzUMb1XsB-39" value="4" style="ellipse;whiteSpace=wrap;html=1;aspect=fixed;" vertex="1" parent="jbRZyaFzqwwdzUMb1XsB-37">
          <mxGeometry x="43" width="34" height="34" as="geometry" />
        </mxCell>
        <mxCell id="jbRZyaFzqwwdzUMb1XsB-40" value="" style="group" vertex="1" connectable="0" parent="1">
          <mxGeometry x="-182" y="704" width="120" height="80" as="geometry" />
        </mxCell>
        <mxCell id="jbRZyaFzqwwdzUMb1XsB-41" value="&lt;br&gt;Роман" style="shape=hexagon;perimeter=hexagonPerimeter2;whiteSpace=wrap;html=1;fixedSize=1;" vertex="1" parent="jbRZyaFzqwwdzUMb1XsB-40">
          <mxGeometry width="120" height="80" as="geometry" />
        </mxCell>
        <mxCell id="jbRZyaFzqwwdzUMb1XsB-42" value="3" style="ellipse;whiteSpace=wrap;html=1;aspect=fixed;" vertex="1" parent="jbRZyaFzqwwdzUMb1XsB-40">
          <mxGeometry x="43" width="34" height="34" as="geometry" />
        </mxCell>
        <mxCell id="jbRZyaFzqwwdzUMb1XsB-43" value="" style="group" vertex="1" connectable="0" parent="1">
          <mxGeometry x="-182" y="488" width="120" height="80" as="geometry" />
        </mxCell>
        <mxCell id="jbRZyaFzqwwdzUMb1XsB-44" value="Классика" style="shape=hexagon;perimeter=hexagonPerimeter2;whiteSpace=wrap;html=1;fixedSize=1;" vertex="1" parent="jbRZyaFzqwwdzUMb1XsB-43">
          <mxGeometry width="120" height="80" as="geometry" />
        </mxCell>
        <mxCell id="jbRZyaFzqwwdzUMb1XsB-45" value="1" style="ellipse;whiteSpace=wrap;html=1;aspect=fixed;" vertex="1" parent="jbRZyaFzqwwdzUMb1XsB-43">
          <mxGeometry x="43" width="34" height="34" as="geometry" />
        </mxCell>
        <mxCell id="jbRZyaFzqwwdzUMb1XsB-46" value="" style="group" vertex="1" connectable="0" parent="1">
          <mxGeometry x="-183" y="600" width="120" height="80" as="geometry" />
        </mxCell>
        <mxCell id="jbRZyaFzqwwdzUMb1XsB-47" value="&lt;br&gt;Фантастика" style="shape=hexagon;perimeter=hexagonPerimeter2;whiteSpace=wrap;html=1;fixedSize=1;" vertex="1" parent="jbRZyaFzqwwdzUMb1XsB-46">
          <mxGeometry width="120" height="80" as="geometry" />
        </mxCell>
        <mxCell id="jbRZyaFzqwwdzUMb1XsB-48" value="2" style="ellipse;whiteSpace=wrap;html=1;aspect=fixed;" vertex="1" parent="jbRZyaFzqwwdzUMb1XsB-46">
          <mxGeometry x="43" width="34" height="34" as="geometry" />
        </mxCell>
        <mxCell id="ZqYo3Qb6MNWs4jvXZa32-1" value="" style="group" vertex="1" connectable="0" parent="1">
          <mxGeometry x="-309" y="525" width="93" height="93" as="geometry" />
        </mxCell>
        <mxCell id="ZqYo3Qb6MNWs4jvXZa32-2" value="&lt;br&gt;&lt;br&gt;Гарри Поттер и философский камень" style="whiteSpace=wrap;html=1;aspect=fixed;" vertex="1" parent="ZqYo3Qb6MNWs4jvXZa32-1">
          <mxGeometry width="93" height="93" as="geometry" />
        </mxCell>
        <mxCell id="ZqYo3Qb6MNWs4jvXZa32-3" value="7" style="whiteSpace=wrap;html=1;aspect=fixed;" vertex="1" parent="ZqYo3Qb6MNWs4jvXZa32-1">
          <mxGeometry x="32.5" width="28" height="28" as="geometry" />
        </mxCell>
        <mxCell id="ZqYo3Qb6MNWs4jvXZa32-4" value="" style="group" vertex="1" connectable="0" parent="1">
          <mxGeometry x="70" y="924" width="80" height="80" as="geometry" />
        </mxCell>
        <mxCell id="ZqYo3Qb6MNWs4jvXZa32-5" value="&lt;br&gt;Маленький&lt;br&gt;принц" style="whiteSpace=wrap;html=1;aspect=fixed;" vertex="1" parent="ZqYo3Qb6MNWs4jvXZa32-4">
          <mxGeometry width="80" height="80" as="geometry" />
        </mxCell>
        <mxCell id="ZqYo3Qb6MNWs4jvXZa32-6" value="6" style="whiteSpace=wrap;html=1;aspect=fixed;" vertex="1" parent="ZqYo3Qb6MNWs4jvXZa32-4">
          <mxGeometry x="26" width="28" height="28" as="geometry" />
        </mxCell>
        <mxCell id="ZqYo3Qb6MNWs4jvXZa32-7" value="" style="group" vertex="1" connectable="0" parent="1">
          <mxGeometry x="143" y="591" width="80" height="80" as="geometry" />
        </mxCell>
        <mxCell id="ZqYo3Qb6MNWs4jvXZa32-8" value="1984" style="whiteSpace=wrap;html=1;aspect=fixed;" vertex="1" parent="ZqYo3Qb6MNWs4jvXZa32-7">
          <mxGeometry width="80" height="80" as="geometry" />
        </mxCell>
        <mxCell id="ZqYo3Qb6MNWs4jvXZa32-9" value="4" style="whiteSpace=wrap;html=1;aspect=fixed;" vertex="1" parent="ZqYo3Qb6MNWs4jvXZa32-7">
          <mxGeometry x="26" width="28" height="28" as="geometry" />
        </mxCell>
        <mxCell id="ZqYo3Qb6MNWs4jvXZa32-10" value="" style="group" vertex="1" connectable="0" parent="1">
          <mxGeometry x="35" y="683" width="80" height="80" as="geometry" />
        </mxCell>
        <mxCell id="ZqYo3Qb6MNWs4jvXZa32-11" value="&lt;br&gt;&lt;br&gt;Преступление&lt;br&gt;и&lt;br&gt;наказание" style="whiteSpace=wrap;html=1;aspect=fixed;" vertex="1" parent="ZqYo3Qb6MNWs4jvXZa32-10">
          <mxGeometry width="80" height="80" as="geometry" />
        </mxCell>
        <mxCell id="ZqYo3Qb6MNWs4jvXZa32-12" value="2" style="whiteSpace=wrap;html=1;aspect=fixed;" vertex="1" parent="ZqYo3Qb6MNWs4jvXZa32-10">
          <mxGeometry x="26" width="28" height="28" as="geometry" />
        </mxCell>
        <mxCell id="ZqYo3Qb6MNWs4jvXZa32-13" value="" style="group" vertex="1" connectable="0" parent="1">
          <mxGeometry x="-12" y="553" width="80" height="80" as="geometry" />
        </mxCell>
        <mxCell id="ZqYo3Qb6MNWs4jvXZa32-14" value="&lt;br&gt;Мастер и маргарита" style="whiteSpace=wrap;html=1;aspect=fixed;" vertex="1" parent="ZqYo3Qb6MNWs4jvXZa32-13">
          <mxGeometry width="80" height="80" as="geometry" />
        </mxCell>
        <mxCell id="ZqYo3Qb6MNWs4jvXZa32-15" value="1" style="whiteSpace=wrap;html=1;aspect=fixed;" vertex="1" parent="ZqYo3Qb6MNWs4jvXZa32-13">
          <mxGeometry x="26" width="28" height="28" as="geometry" />
        </mxCell>
        <mxCell id="H-FLKI_-Um02Oj1WTnJM-7" value="" style="group" vertex="1" connectable="0" parent="1">
          <mxGeometry x="3" y="801" width="80" height="80" as="geometry" />
        </mxCell>
        <mxCell id="H-FLKI_-Um02Oj1WTnJM-8" value="&lt;br&gt;Три товарища" style="whiteSpace=wrap;html=1;aspect=fixed;" vertex="1" parent="H-FLKI_-Um02Oj1WTnJM-7">
          <mxGeometry width="80" height="80" as="geometry" />
        </mxCell>
        <mxCell id="H-FLKI_-Um02Oj1WTnJM-9" value="5" style="whiteSpace=wrap;html=1;aspect=fixed;" vertex="1" parent="H-FLKI_-Um02Oj1WTnJM-7">
          <mxGeometry x="26" width="28" height="28" as="geometry" />
        </mxCell>
        <mxCell id="H-FLKI_-Um02Oj1WTnJM-10" value="" style="group" vertex="1" connectable="0" parent="1">
          <mxGeometry x="-27" y="411" width="80" height="80" as="geometry" />
        </mxCell>
        <mxCell id="H-FLKI_-Um02Oj1WTnJM-11" value="Война и Мир" style="whiteSpace=wrap;html=1;aspect=fixed;" vertex="1" parent="H-FLKI_-Um02Oj1WTnJM-10">
          <mxGeometry width="80" height="80" as="geometry" />
        </mxCell>
        <mxCell id="H-FLKI_-Um02Oj1WTnJM-12" value="3" style="whiteSpace=wrap;html=1;aspect=fixed;" vertex="1" parent="H-FLKI_-Um02Oj1WTnJM-10">
          <mxGeometry x="26" width="28" height="28" as="geometry" />
        </mxCell>
        <mxCell id="H-FLKI_-Um02Oj1WTnJM-16" style="edgeStyle=none;curved=1;rounded=0;orthogonalLoop=1;jettySize=auto;html=1;exitX=0;exitY=0.5;exitDx=0;exitDy=0;fontSize=12;startSize=8;endSize=8;" edge="1" parent="1" source="ZqYo3Qb6MNWs4jvXZa32-14" target="jbRZyaFzqwwdzUMb1XsB-44">
          <mxGeometry relative="1" as="geometry" />
        </mxCell>
        <mxCell id="H-FLKI_-Um02Oj1WTnJM-17" style="edgeStyle=none;curved=1;rounded=0;orthogonalLoop=1;jettySize=auto;html=1;exitX=0.5;exitY=1;exitDx=0;exitDy=0;entryX=1;entryY=0.25;entryDx=0;entryDy=0;fontSize=12;startSize=8;endSize=8;" edge="1" parent="1" source="ZqYo3Qb6MNWs4jvXZa32-14" target="jbRZyaFzqwwdzUMb1XsB-38">
          <mxGeometry relative="1" as="geometry" />
        </mxCell>
        <mxCell id="H-FLKI_-Um02Oj1WTnJM-18" style="edgeStyle=none;curved=1;rounded=0;orthogonalLoop=1;jettySize=auto;html=1;exitX=0;exitY=0.5;exitDx=0;exitDy=0;fontSize=12;startSize=8;endSize=8;" edge="1" parent="1" source="ZqYo3Qb6MNWs4jvXZa32-11" target="jbRZyaFzqwwdzUMb1XsB-44">
          <mxGeometry relative="1" as="geometry" />
        </mxCell>
        <mxCell id="H-FLKI_-Um02Oj1WTnJM-19" style="edgeStyle=none;curved=1;rounded=0;orthogonalLoop=1;jettySize=auto;html=1;exitX=0;exitY=1;exitDx=0;exitDy=0;entryX=1;entryY=0.25;entryDx=0;entryDy=0;fontSize=12;startSize=8;endSize=8;" edge="1" parent="1" source="ZqYo3Qb6MNWs4jvXZa32-11" target="jbRZyaFzqwwdzUMb1XsB-38">
          <mxGeometry relative="1" as="geometry" />
        </mxCell>
        <mxCell id="H-FLKI_-Um02Oj1WTnJM-20" style="edgeStyle=none;curved=1;rounded=0;orthogonalLoop=1;jettySize=auto;html=1;exitX=0;exitY=0.75;exitDx=0;exitDy=0;entryX=1;entryY=0.25;entryDx=0;entryDy=0;fontSize=12;startSize=8;endSize=8;" edge="1" parent="1" source="H-FLKI_-Um02Oj1WTnJM-11" target="jbRZyaFzqwwdzUMb1XsB-44">
          <mxGeometry relative="1" as="geometry" />
        </mxCell>
        <mxCell id="H-FLKI_-Um02Oj1WTnJM-21" style="edgeStyle=none;curved=1;rounded=0;orthogonalLoop=1;jettySize=auto;html=1;exitX=1;exitY=0.5;exitDx=0;exitDy=0;entryX=0;entryY=0.75;entryDx=0;entryDy=0;fontSize=12;startSize=8;endSize=8;" edge="1" parent="1" source="ZqYo3Qb6MNWs4jvXZa32-8" target="jbRZyaFzqwwdzUMb1XsB-32">
          <mxGeometry relative="1" as="geometry" />
        </mxCell>
        <mxCell id="H-FLKI_-Um02Oj1WTnJM-23" style="edgeStyle=none;curved=1;rounded=0;orthogonalLoop=1;jettySize=auto;html=1;exitX=0;exitY=0.5;exitDx=0;exitDy=0;entryX=1;entryY=0.75;entryDx=0;entryDy=0;fontSize=12;startSize=8;endSize=8;" edge="1" parent="1" source="ZqYo3Qb6MNWs4jvXZa32-8" target="jbRZyaFzqwwdzUMb1XsB-47">
          <mxGeometry relative="1" as="geometry" />
        </mxCell>
        <mxCell id="H-FLKI_-Um02Oj1WTnJM-25" style="edgeStyle=none;curved=1;rounded=0;orthogonalLoop=1;jettySize=auto;html=1;exitX=0.25;exitY=0;exitDx=0;exitDy=0;entryX=1;entryY=0.75;entryDx=0;entryDy=0;fontSize=12;startSize=8;endSize=8;" edge="1" parent="1" source="H-FLKI_-Um02Oj1WTnJM-8" target="jbRZyaFzqwwdzUMb1XsB-41">
          <mxGeometry relative="1" as="geometry" />
        </mxCell>
        <mxCell id="H-FLKI_-Um02Oj1WTnJM-26" style="edgeStyle=none;curved=1;rounded=0;orthogonalLoop=1;jettySize=auto;html=1;exitX=0;exitY=0.5;exitDx=0;exitDy=0;entryX=1;entryY=0.75;entryDx=0;entryDy=0;fontSize=12;startSize=8;endSize=8;" edge="1" parent="1" source="H-FLKI_-Um02Oj1WTnJM-8" target="jbRZyaFzqwwdzUMb1XsB-38">
          <mxGeometry relative="1" as="geometry" />
        </mxCell>
        <mxCell id="H-FLKI_-Um02Oj1WTnJM-27" style="edgeStyle=none;curved=1;rounded=0;orthogonalLoop=1;jettySize=auto;html=1;exitX=1;exitY=0.5;exitDx=0;exitDy=0;fontSize=12;startSize=8;endSize=8;" edge="1" parent="1" source="ZqYo3Qb6MNWs4jvXZa32-5" target="jbRZyaFzqwwdzUMb1XsB-20">
          <mxGeometry relative="1" as="geometry" />
        </mxCell>
        <mxCell id="H-FLKI_-Um02Oj1WTnJM-28" style="edgeStyle=none;curved=1;rounded=0;orthogonalLoop=1;jettySize=auto;html=1;exitX=0;exitY=0.5;exitDx=0;exitDy=0;fontSize=12;startSize=8;endSize=8;" edge="1" parent="1" source="ZqYo3Qb6MNWs4jvXZa32-5" target="jbRZyaFzqwwdzUMb1XsB-35">
          <mxGeometry relative="1" as="geometry" />
        </mxCell>
        <mxCell id="H-FLKI_-Um02Oj1WTnJM-29" style="edgeStyle=none;curved=1;rounded=0;orthogonalLoop=1;jettySize=auto;html=1;exitX=1;exitY=0.75;exitDx=0;exitDy=0;entryX=0;entryY=0.25;entryDx=0;entryDy=0;fontSize=12;startSize=8;endSize=8;" edge="1" parent="1" source="ZqYo3Qb6MNWs4jvXZa32-2" target="jbRZyaFzqwwdzUMb1XsB-47">
          <mxGeometry relative="1" as="geometry" />
        </mxCell>
      </root>
    </mxGraphModel>
  </diagram>
</mxfile>
